# xmcd
#
# Track frame offsets: 
#        150
#        28196
#        50894
#        90482
#        116582
#        157785
#        218726
#
# Disc length: 3344 seconds
#
# Revision: 0
# Processed by: cddbd v1.5.2PL0 Copyright (c) Steve Scherf et al.
# Submitted via: ExactAudioCopy v1.3
#
DISCID=560d0e07
DTITLE=Alvin Jett and the Hired Help - Live In Soulard
DYEAR=2002
DGENRE=Blues
TTITLE0=Crosscut Saw
TTITLE1=Sweet Home Chicago
TTITLE2=How Blue Can You Get
TTITLE3=Long Train Running
TTITLE4=Mustang Sally
TTITLE5=Europa
TTITLE6=Hoochie Coochie Man
EXTD=
EXTT0=
EXTT1=
EXTT2=
EXTT3=
EXTT4=
EXTT5=
EXTT6=
PLAYORDER=
